<?xml version="1.0" standalone="no"?>
<!DOCTYPE svg PUBLIC "-//W3C//DTD SVG 20010904//EN"
 "http://www.w3.org/TR/2001/REC-SVG-20010904/DTD/svg10.dtd">
<svg version="1.0" xmlns="http://www.w3.org/2000/svg"
 width="70.000000pt" height="70.000000pt" viewBox="0 0 70.000000 70.000000"
 preserveAspectRatio="xMidYMid meet">
<metadata>
Created by potrace 1.14, written by Peter Selinger 2001-2017
</metadata>
<g transform="translate(0.000000,70.000000) scale(0.100000,-0.100000)"
fill="#000000" stroke="none">
<path d="M372 551 c-12 -11 -18 -21 -12 -23 6 -2 6 -9 0 -18 -7 -12 -12 -12
-22 -2 -18 18 -32 15 -61 -13 -19 -20 -32 -24 -56 -20 -17 3 -31 1 -31 -4 0
-5 -10 -13 -22 -17 -29 -8 -59 -34 -53 -44 3 -4 -2 -13 -10 -20 -12 -10 -15
-9 -15 4 0 27 -44 13 -48 -15 -2 -13 -1 -21 4 -17 4 4 17 -5 28 -21 12 -15 25
-30 31 -32 5 -2 9 -15 9 -28 -1 -14 5 -31 13 -39 12 -12 12 -16 1 -23 -11 -7
-11 -9 0 -9 16 0 43 -25 36 -33 -3 -3 2 -4 11 -3 9 1 21 9 26 17 5 8 9 11 9 7
0 -5 9 1 20 12 19 19 21 19 40 3 11 -10 20 -24 20 -33 0 -13 1 -13 10 0 8 13
10 12 10 -2 0 -14 7 -11 30 14 17 17 30 27 30 22 0 -5 5 -2 10 6 8 12 10 11
10 -6 0 -12 8 -24 18 -28 9 -3 22 -8 28 -11 6 -3 14 4 17 16 3 11 10 18 15 15
6 -3 12 1 16 9 3 8 1 15 -3 15 -10 0 -8 47 2 56 3 4 26 7 51 8 57 2 76 20 78
74 1 23 5 42 9 42 16 0 39 32 39 54 0 13 -8 30 -18 39 -19 18 -67 24 -58 8 3
-5 -1 -12 -10 -15 -10 -4 -21 4 -32 24 -9 16 -21 30 -25 30 -5 0 -5 5 -2 10 3
6 -4 10 -18 10 -19 0 -24 -5 -23 -22 1 -17 -5 -23 -21 -24 -18 -1 -23 4 -23
22 0 29 -25 31 -58 5z"/>
</g>
</svg>
